<svg xmlns="http://www.w3.org/2000/svg" viewBox="0 0 129.34 180.55"><defs><style>.cls-1{fill:none;}.cls-1,.cls-2{stroke:#231f20;stroke-miterlimit:10;stroke-width:10px;}.cls-2{fill:#fff;}.cls-3{fill:#231f20;}</style></defs><title>Asset 12</title><g id="Layer_2" data-name="Layer 2"><g id="Layer_1-2" data-name="Layer 1"><path class="cls-1" d="M102.76,110.62l-1,.77m-4.57,3.35c-12.06,9.07-67.8,51-78.62,59.09h0"/><path class="cls-2" d="M124.31,63.19c-.69-44.4-50.38-72.61-88.87-50.48A59.58,59.58,0,0,0,5,64.73V167a8.5,8.5,0,0,0,13.61,6.8c6.64-5.09,16.82-10.62,16.22-20.33V123.63A5,5,0,0,1,41.45,119C80.62,137.06,125.75,106.23,124.31,63.19ZM94.38,67.47C93.22,84.7,75.45,97.82,58.65,94c-19.06-3.33-30-26.71-20.21-43.44a30.4,30.4,0,0,1,4.15-5.85C61.54,23.58,97.14,39.27,94.38,67.47Z"/><path class="cls-3" d="M72.2,121.18c-9.13,3.12-18.83.11-28.23.69-2.64-1.48-6.3-.91-6.93,2.87a178.91,178.91,0,0,0-2.45,26.65c-.06,4.45,5.45,6.43,8.54,3.53,10.15-9.52,20.36-18.38,32.92-24.6C81.09,127.82,77.57,119.35,72.2,121.18Z"/></g></g></svg>